<?xml version="1.0" encoding="UTF-8"?>
<svg id="Camada_2" data-name="Camada 2" xmlns="http://www.w3.org/2000/svg" xmlns:xlink="http://www.w3.org/1999/xlink" viewBox="0 0 372.95 115.66">
  <defs>
    <style>
      .cls-1 {
        fill: #fff;
      }

      .cls-2 {
        fill: url(#Gradiente_sem_nome_31);
      }
    </style>
    <linearGradient id="Gradiente_sem_nome_31" data-name="Gradiente sem nome 31" x1="0" y1="57.83" x2="372.95" y2="57.83" gradientUnits="userSpaceOnUse">
      <stop offset="0" stop-color="#c04406"/>
      <stop offset="1" stop-color="#ce89f8"/>
    </linearGradient>
  </defs>
  <g id="Camada_2-2" data-name="Camada 2">
    <g>
      <g>
        <path class="cls-1" d="M146.24,69.34c-1.48,.46-3.01,1.58-4.59,3.34-2.13,2.6-6.03,7.26-11.68,13.98-5.66,6.72-9.23,10.92-10.71,12.59-1.3,1.58-2.16,2.6-2.57,3.06-.42,.46-1.23,1.16-2.43,2.09-1.21,.93-2.41,1.62-3.62,2.09-1.58,.46-2.83,.42-3.76-.14-.93-.56-1.3-1.62-1.11-3.2,.28-2.97,.74-5.47,1.39-7.51,2.78-8.25,5.42-15.76,7.93-22.53,.56-1.48,1.23-3.18,2.02-5.08,.79-1.9,1.6-3.8,2.43-5.7,.83-1.9,1.53-3.59,2.09-5.08,1.67-4.17,2.5-7.23,2.5-9.18,0-1.76-.53-3.22-1.6-4.38-1.07-1.16-2.43-1.88-4.1-2.16-3.15-.56-6.17,.23-9.04,2.36-4.17,2.97-7.93,5.89-11.27,8.76-5.01,4.27-10.34,9.37-16,15.3-2.13,2.41-4.59,5.19-7.37,8.35-.37,.37-.88,.95-1.53,1.74-.65,.79-1.18,1.44-1.6,1.95-.42,.51-.95,1.07-1.6,1.67-.65,.6-1.25,1.09-1.81,1.46-.46,.28-.83,.37-1.11,.28-.19-.19-.28-.51-.28-.97,.09-.83,.46-2.09,1.11-3.76,8.07-20.12,15.25-40.52,21.56-61.2,.37-1.3,.67-2.32,.9-3.06,.23-.74,.44-1.81,.63-3.2,.19-1.39,.21-2.53,.07-3.41-.14-.88-.51-1.78-1.11-2.71-.6-.93-1.46-1.58-2.57-1.95-2.69-1.11-5.01-.65-6.96,1.39-4.45,4.92-7.98,9-10.57,12.24-1.21,1.11-2.39,2.41-3.55,3.89-1.16,1.48-2.41,3.13-3.76,4.94-1.35,1.81-2.39,3.18-3.13,4.1-3.8,4.73-7.51,9.41-11.13,14.05-8.25,10.57-16.23,21.24-23.92,31.99-.65,.93-2.69,4.01-6.12,9.25-3.43,5.24-6.4,9.3-8.9,12.17-2.5,2.88-5.24,5.33-8.21,7.37-1.39,1.02-1.53,2.13-.42,3.34,1.39,1.48,2.73,2.18,4.03,2.09,.56,0,1.44-.37,2.64-1.11,.46-.28,.95-.67,1.46-1.18s.93-.95,1.25-1.32c.32-.37,.74-.88,1.25-1.53,.51-.65,.9-1.11,1.18-1.39,2.69-3.06,6.1-7.67,10.22-13.84,4.12-6.17,6.84-10.13,8.14-11.89,7.14-9.46,18.55-24.34,34.22-44.65,1.39-1.76,6.03-7.46,13.91-17.11,1.39-1.67,2.69-2.36,3.9-2.09,.56,.56,.74,1.42,.56,2.57-.19,1.16-.35,2-.49,2.5-.14,.51-.46,1.32-.97,2.43-.51,1.11-.81,1.9-.9,2.36-3.52,10.11-8.25,23.32-14.19,39.64-.83,2.41-2.23,5.96-4.17,10.64-1.95,4.68-3.34,8.23-4.17,10.64-1.48,3.99-3.85,11.22-7.09,21.7-.28,.65-.42,1.3-.42,1.95-.09,1.95,.56,3.29,1.95,4.03,1.58,.74,2.92,.23,4.03-1.53,5.47-8.53,9.69-14.51,12.66-17.94,11.41-12.98,18.55-21.1,21.42-24.34,6.77-7.42,13.44-13.31,20.03-17.67,.93-.65,2.09-1.2,3.48-1.67,.46-.18,.9-.12,1.32,.21,.42,.33,.63,.72,.63,1.18-.09,1.95-.37,3.53-.83,4.73-1.48,2.97-2.97,6.26-4.45,9.88-1.48,3.62-2.78,6.86-3.9,9.74-1.11,2.88-2.41,6.28-3.89,10.22-1.48,3.94-2.78,7.26-3.9,9.95-1.67,4.08-2.13,8.12-1.39,12.1,.65,3.53,2.2,5.98,4.66,7.37,2.46,1.39,5.4,1.48,8.83,.28,1.58-.65,3.2-1.67,4.87-3.06,2.78-2.41,4.82-4.4,6.12-5.98,3.06-3.89,7.12-8.67,12.17-14.33,5.05-5.65,9.3-10.2,12.73-13.63,2.97-2.97,3.62-5.52,1.95-7.65-.74-1.02-1.86-1.3-3.34-.83Z"/>
        <path class="cls-1" d="M372.55,67.95c-.46-.65-1.18-1.02-2.16-1.11-.97-.09-1.83,.14-2.57,.7-.93,.56-2,1.86-3.2,3.9-3.34,5.38-7.54,10.08-12.59,14.12-5.06,4.03-10.6,7.07-16.62,9.11-3.89,1.3-7.05,2.27-9.46,2.92-2.41,.65-5.31,1.21-8.69,1.67-3.39,.47-6.61,.42-9.67-.14-3.06-.56-6.07-1.62-9.04-3.2-1.76-.93-3.11-1.95-4.03-3.06-1.95-2.59-2.62-5.84-2.02-9.74,.6-3.89,2.06-6.96,4.38-9.18,15.95-15.58,28.7-34.91,38.25-58,1.02-2.69,1.48-5.01,1.39-6.95-.28-2.97-1.9-5.38-4.87-7.23-1.58-1.02-3.25-1.44-5.01-1.25-1.76,.19-3.5,.93-5.22,2.23-1.72,1.3-3.08,2.57-4.1,3.83-1.02,1.25-2.13,2.81-3.34,4.66-2.41,3.52-5.61,9.74-9.6,18.64-6.32,13.95-11.06,26.02-14.25,36.24-.3,.11-.6,.27-.91,.49-.37,.28-2.92,2.32-7.65,6.12-4.82,3.89-12.06,9-21.7,15.3-9.65,6.31-16.51,10.2-20.59,11.68-.74,.19-1.44,.37-2.09,.56-3.06,.83-6.17,1.07-9.32,.7-3.15-.37-6.17-1.34-9.04-2.92-2.97-1.58-5.66-3.76-8.07-6.54-1.21-1.39-2.32-2.97-3.34-4.73-.56-.83-1.07-1.71-1.53-2.64-.19-.37-.42-.88-.7-1.53-.09-.09-.23-.28-.42-.56s-.33-.51-.42-.7c0-.28,.18-.51,.56-.7,.65-.37,1.64-.83,2.99-1.39,1.34-.56,2.53-1.09,3.55-1.6,1.02-.51,1.95-1.09,2.78-1.74,10.76-6.77,18.64-12.05,23.65-15.86,11.69-8.53,21.28-16.6,28.79-24.2,3.52-3.52,5.98-7.09,7.37-10.71,.74-1.95,.97-3.64,.7-5.08-.28-1.44-1.02-2.57-2.22-3.41-1.21-.83-2.74-1.25-4.59-1.25-1.3,.09-2.71,.51-4.24,1.25-1.53,.74-2.78,1.51-3.76,2.29-.97,.79-2.25,1.86-3.82,3.2-1.58,1.35-2.69,2.3-3.34,2.85-1.76,1.39-5.8,4.57-12.1,9.53-6.31,4.96-10.85,8.53-13.63,10.71-2.78,2.18-6.65,5.26-11.61,9.25-4.96,3.99-9.44,7.65-13.42,10.99-3.99,3.34-7.93,6.63-11.82,9.88-10.2,8.81-15.39,12.98-15.58,12.52-.28-.09-.47-.46-.56-1.11-.09-.65-.05-1.41,.14-2.3,.19-.88,.39-1.76,.63-2.64,.23-.88,.49-1.65,.77-2.3,5.29-13.91,9.23-24.25,11.82-31.02,2.04-5.1,4.22-10.15,6.54-15.16,.84-1.85,1.81-4.03,2.92-6.54,1.11-2.5,2.13-4.71,3.06-6.61,.93-1.9,1.92-4.06,2.99-6.47,1.06-2.41,2.06-4.64,2.99-6.68,.65-1.39,1-2.23,1.04-2.5s.12-.7,.21-1.25c.09-.56,0-1.04-.28-1.46-.28-.42-.7-.81-1.25-1.18-2.04-1.39-4.04-.46-5.98,2.78-8.25,13.91-17.71,23.42-28.38,28.52-.46,.19-.74,.37-.83,.56-.56,1.48-.79,2.41-.7,2.78,.19,1.76,.97,2.69,2.36,2.78,1.39,.09,2.64-.14,3.76-.7,.37-.09,1.55-.77,3.55-2.02,1.99-1.25,3.5-1.92,4.52-2.02,.65-.19,.99,0,1.04,.56,.04,.56-.02,1.21-.21,1.95-.19,.93-.56,2.23-1.11,3.9-6.21,18.18-13.77,35.8-22.67,52.86-2.32,4.45-3.85,7.56-4.59,9.32-.47,.93-.77,1.67-.9,2.23-.14,.56-.26,1.21-.35,1.95-.09,.74,.02,1.42,.35,2.02,.32,.6,.86,1.18,1.6,1.74,1.11,.74,2.27,.65,3.48-.28,3.06-2.41,7.19-5.75,12.38-10.02,8.62-7.05,14.47-11.87,17.53-14.47,1.85-1.58,3.48-1.44,4.87,.42,1.57,2.13,2.69,3.85,3.34,5.15,3.24,6.4,8.85,11.87,16.83,16.41,7.32,4.17,14.42,5.15,21.28,2.92,2.87-1.02,8.6-4.06,17.18-9.11,8.58-5.05,14.72-8.83,18.43-11.34,1.1-.76,5.87-4.18,14.28-10.26-1.5,7.76-.5,13.73,2.97,17.91,3.71,4.45,9.13,7.33,16.27,8.62,2.32,.37,4.78,.56,7.37,.56,3.9,0,8.02-.56,12.38-1.67,6.12-1.58,14.61-5.19,25.46-10.85,7.79-4.17,14.65-11.08,20.59-20.73,1.3-2.23,1.58-3.94,.83-5.15Zm-160.24-.42c.19-.28,.93-1.11,2.23-2.5,.83-.83,1.71-1.71,2.64-2.64,1.67-1.67,3.43-3.34,5.29-5.01,4.54-3.99,11.73-9.78,21.56-17.39,4.82-3.71,8.48-6.58,10.99-8.62,1.76-1.3,3.57-2.73,5.43-4.31,.28-.28,.67-.6,1.18-.97,.51-.37,.9-.6,1.18-.7,1.02-.93,1.95-1.44,2.78-1.53,.74-.18,1.02,.05,.83,.7-.28,1.39-1.3,3.01-3.06,4.87-7.7,7.6-19.43,17.2-35.19,28.79-11.5,8.44-16.79,11.54-15.86,9.32Zm92.36-23.23c4.54-10.57,8.58-19.24,12.1-26.01,4.73-9.09,8.95-12.61,12.66-10.57,.65,.37,1.13,.9,1.46,1.6,.32,.7,.46,1.51,.42,2.43-.05,.93-.21,1.9-.49,2.92-.28,1.02-.67,2.13-1.18,3.34-.51,1.21-1.04,2.34-1.6,3.41-.56,1.07-1.16,2.2-1.81,3.41-.65,1.21-1.23,2.23-1.74,3.06-.51,.83-1.02,1.67-1.53,2.5-.51,.83-.86,1.39-1.04,1.67-4.45,7.88-9.78,15.86-16,23.92-1.11,1.39-2.71,3.15-4.8,5.29-2.09,2.13-3.96,3.8-5.63,5.01,1.48-4.08,4.54-11.41,9.18-21.98Z"/>
        <path class="cls-1" d="M316.94,76.56c-.45-.15-1.01-.22-1.66-.22h-1.72c-.09,0-.18,.03-.26,.08-.08,.05-.12,.14-.12,.28v5.83c0,.13,.04,.22,.12,.28,.08,.05,.17,.08,.26,.08h1.61c.65,0,1.21-.07,1.68-.21s.86-.35,1.19-.62c.32-.28,.57-.63,.74-1.05,.17-.42,.25-.92,.25-1.48,0-.49-.08-.93-.24-1.32s-.39-.72-.7-1-.69-.49-1.14-.63Zm.85,4.14c-.11,.33-.28,.6-.5,.81-.22,.21-.5,.38-.83,.48s-.74,.16-1.22,.16h-1.04v-5.09h1.03c.52,0,.95,.06,1.28,.19,.33,.12,.61,.3,.82,.52s.38,.49,.48,.79c.1,.31,.15,.63,.15,.99,0,.44-.06,.83-.17,1.15Z"/>
        <path class="cls-1" d="M324.54,77.07s.06,0,.08-.02,.05-.03,.06-.06c.02-.03,.03-.07,.04-.11,0-.05,.02-.1,.02-.16,0-.07,0-.12-.02-.17,0-.05-.02-.08-.04-.11s-.04-.05-.06-.07-.05-.02-.08-.02h-3.6c-.09,0-.18,.03-.26,.08-.08,.05-.12,.14-.12,.28v5.83c0,.13,.04,.22,.12,.28,.08,.05,.17,.08,.26,.08h3.64s.06,0,.08-.02c.03-.01,.05-.04,.07-.07s.03-.07,.04-.11c0-.05,.01-.1,.01-.16,0-.07,0-.12-.01-.17,0-.05-.02-.08-.04-.11-.02-.03-.04-.05-.07-.06s-.05-.02-.08-.02h-3.01v-2.34h2.54s.06,0,.08-.02,.05-.03,.06-.06c.02-.03,.03-.06,.04-.11,0-.04,.01-.1,.01-.16s0-.12-.01-.17c0-.05-.02-.08-.04-.11-.02-.03-.04-.05-.06-.06-.03-.01-.05-.02-.08-.02h-2.54v-2.05h2.96Z"/>
        <path class="cls-1" d="M331.56,76.31c-.12,0-.21,0-.28,0s-.12,.01-.16,.03c-.04,.01-.07,.03-.08,.06-.02,.02-.03,.05-.04,.09l-2.12,5.49h0l-2.17-5.5s-.03-.06-.05-.08c-.02-.02-.04-.04-.08-.05-.04-.01-.09-.02-.15-.03s-.15,0-.26,0c-.13,0-.24,0-.32,.01s-.13,.02-.17,.04-.05,.06-.05,.1c0,.05,.02,.11,.05,.18l2.48,6.07s.02,.05,.04,.07c.01,.02,.03,.04,.06,.05,.02,.01,.05,.02,.08,.03,.03,0,.07,.02,.12,.02,.05,0,.1,.01,.17,.01,.06,0,.14,0,.23,0,.11,0,.21,0,.28,0s.14-.01,.19-.03,.09-.03,.12-.06,.05-.05,.06-.09l2.47-6.07c.03-.07,.05-.13,.05-.18,0-.04,0-.08-.03-.1s-.07-.04-.14-.05c-.07,0-.17-.01-.29-.01Z"/>
        <path class="cls-1" d="M338.41,81.06c.18,.19,.4,.33,.67,.42,.27,.09,.57,.14,.92,.14,.18,0,.34-.01,.5-.04,.16-.03,.3-.07,.42-.11,.12-.05,.23-.1,.33-.15s.16-.1,.2-.13,.06-.06,.07-.08,.02-.04,.03-.07,.02-.06,.02-.1,0-.08,0-.13c0-.06,0-.11,0-.16,0-.04-.01-.08-.02-.11,0-.03-.02-.05-.04-.06s-.04-.02-.06-.02c-.05,0-.12,.03-.19,.08-.07,.05-.16,.11-.26,.17-.1,.06-.23,.12-.37,.17-.14,.05-.32,.08-.52,.08-.22,0-.41-.03-.58-.1-.17-.06-.31-.16-.42-.29s-.2-.3-.26-.5c-.06-.2-.09-.43-.09-.71,0-.52,.11-.92,.34-1.19,.22-.27,.55-.41,.96-.41,.21,0,.39,.02,.54,.07s.26,.1,.36,.16c.1,.06,.18,.11,.25,.16s.14,.07,.2,.07c.03,0,.06,0,.08-.02,.02-.01,.04-.04,.05-.07,.01-.03,.02-.06,.03-.1s.01-.08,.01-.12,0-.08,0-.12-.01-.07-.02-.1c0-.03-.02-.05-.04-.07-.01-.02-.04-.05-.09-.09-.04-.04-.12-.08-.21-.14s-.21-.1-.33-.14-.25-.07-.39-.1-.28-.04-.44-.04c-.31,0-.6,.04-.87,.13-.27,.09-.5,.23-.7,.41s-.35,.42-.46,.71-.17,.63-.17,1.02c0,.36,.05,.67,.14,.94,.09,.27,.23,.5,.41,.69Z"/>
        <path class="cls-1" d="M335.96,79.52c0,.58,.08,1.08,.25,1.51s.41,.79,.74,1.08,.74,.5,1.24,.65,1.07,.22,1.73,.22,1.21-.07,1.71-.22,.91-.37,1.25-.68,.6-.69,.77-1.16c.17-.47,.26-1.02,.26-1.66,0-.55-.08-1.04-.24-1.47s-.4-.79-.73-1.08-.74-.52-1.24-.67c-.5-.15-1.09-.23-1.77-.23s-1.23,.08-1.73,.23c-.5,.15-.91,.38-1.25,.69-.33,.31-.59,.69-.76,1.16s-.25,1.01-.25,1.64Zm.98-1.39c.13-.38,.32-.7,.58-.96s.59-.45,.98-.58,.86-.19,1.39-.19c.6,0,1.1,.07,1.51,.2,.41,.13,.75,.32,1,.57s.44,.55,.56,.92,.17,.78,.17,1.24c0,.43-.05,.83-.16,1.21-.1,.38-.28,.7-.52,.98s-.56,.49-.97,.65c-.4,.16-.91,.23-1.51,.23s-1.07-.06-1.48-.18c-.41-.12-.75-.31-1-.55s-.45-.55-.57-.91-.18-.79-.18-1.27c0-.51,.06-.96,.19-1.34Z"/>
      </g>
      <g>
        <path class="cls-2" d="M146.24,69.34c-1.48,.46-3.01,1.58-4.59,3.34-2.13,2.6-6.03,7.26-11.68,13.98-5.66,6.72-9.23,10.92-10.71,12.59-1.3,1.58-2.16,2.6-2.57,3.06-.42,.46-1.23,1.16-2.43,2.09-1.21,.93-2.41,1.62-3.62,2.09-1.58,.46-2.83,.42-3.76-.14-.93-.56-1.3-1.62-1.11-3.2,.28-2.97,.74-5.47,1.39-7.51,2.78-8.25,5.42-15.76,7.93-22.53,.56-1.48,1.23-3.18,2.02-5.08,.79-1.9,1.6-3.8,2.43-5.7,.83-1.9,1.53-3.59,2.09-5.08,1.67-4.17,2.5-7.23,2.5-9.18,0-1.76-.53-3.22-1.6-4.38-1.07-1.16-2.43-1.88-4.1-2.16-3.15-.56-6.17,.23-9.04,2.36-4.17,2.97-7.93,5.89-11.27,8.76-5.01,4.27-10.34,9.37-16,15.3-2.13,2.41-4.59,5.19-7.37,8.35-.37,.37-.88,.95-1.53,1.74-.65,.79-1.18,1.44-1.6,1.95-.42,.51-.95,1.07-1.6,1.67-.65,.6-1.25,1.09-1.81,1.46-.46,.28-.83,.37-1.11,.28-.19-.19-.28-.51-.28-.97,.09-.83,.46-2.09,1.11-3.76,8.07-20.12,15.25-40.52,21.56-61.2,.37-1.3,.67-2.32,.9-3.06,.23-.74,.44-1.81,.63-3.2,.19-1.39,.21-2.53,.07-3.41-.14-.88-.51-1.78-1.11-2.71-.6-.93-1.46-1.58-2.57-1.95-2.69-1.11-5.01-.65-6.96,1.39-4.45,4.92-7.98,9-10.57,12.24-1.21,1.11-2.39,2.41-3.55,3.89-1.16,1.48-2.41,3.13-3.76,4.94-1.35,1.81-2.39,3.18-3.13,4.1-3.8,4.73-7.51,9.41-11.13,14.05-8.25,10.57-16.23,21.24-23.92,31.99-.65,.93-2.69,4.01-6.12,9.25-3.43,5.24-6.4,9.3-8.9,12.17-2.5,2.88-5.24,5.33-8.21,7.37-1.39,1.02-1.53,2.13-.42,3.34,1.39,1.48,2.73,2.18,4.03,2.09,.56,0,1.44-.37,2.64-1.11,.46-.28,.95-.67,1.46-1.18s.93-.95,1.25-1.32c.32-.37,.74-.88,1.25-1.53,.51-.65,.9-1.11,1.18-1.39,2.69-3.06,6.1-7.67,10.22-13.84,4.12-6.17,6.84-10.13,8.14-11.89,7.14-9.46,18.55-24.34,34.22-44.65,1.39-1.76,6.03-7.46,13.91-17.11,1.39-1.67,2.69-2.36,3.9-2.09,.56,.56,.74,1.42,.56,2.57-.19,1.16-.35,2-.49,2.5-.14,.51-.46,1.32-.97,2.43-.51,1.11-.81,1.9-.9,2.36-3.52,10.11-8.25,23.32-14.19,39.64-.83,2.41-2.23,5.96-4.17,10.64-1.95,4.68-3.34,8.23-4.17,10.64-1.48,3.99-3.85,11.22-7.09,21.7-.28,.65-.42,1.3-.42,1.95-.09,1.95,.56,3.29,1.95,4.03,1.58,.74,2.92,.23,4.03-1.53,5.47-8.53,9.69-14.51,12.66-17.94,11.41-12.98,18.55-21.1,21.42-24.34,6.77-7.42,13.44-13.31,20.03-17.67,.93-.65,2.09-1.2,3.48-1.67,.46-.18,.9-.12,1.32,.21,.42,.33,.63,.72,.63,1.18-.09,1.95-.37,3.53-.83,4.73-1.48,2.97-2.97,6.26-4.45,9.88-1.48,3.62-2.78,6.86-3.9,9.74-1.11,2.88-2.41,6.28-3.89,10.22-1.48,3.94-2.78,7.26-3.9,9.95-1.67,4.08-2.13,8.12-1.39,12.1,.65,3.53,2.2,5.98,4.66,7.37,2.46,1.39,5.4,1.48,8.83,.28,1.58-.65,3.2-1.67,4.87-3.06,2.78-2.41,4.82-4.4,6.12-5.98,3.06-3.89,7.12-8.67,12.17-14.33,5.05-5.65,9.3-10.2,12.73-13.63,2.97-2.97,3.62-5.52,1.95-7.65-.74-1.02-1.86-1.3-3.34-.83Z"/>
        <path class="cls-2" d="M372.55,67.95c-.46-.65-1.18-1.02-2.16-1.11-.97-.09-1.83,.14-2.57,.7-.93,.56-2,1.86-3.2,3.9-3.34,5.38-7.54,10.08-12.59,14.12-5.06,4.03-10.6,7.07-16.62,9.11-3.89,1.3-7.05,2.27-9.46,2.92-2.41,.65-5.31,1.21-8.69,1.67-3.39,.47-6.61,.42-9.67-.14-3.06-.56-6.07-1.62-9.04-3.2-1.76-.93-3.11-1.95-4.03-3.06-1.95-2.59-2.62-5.84-2.02-9.74,.6-3.89,2.06-6.96,4.38-9.18,15.95-15.58,28.7-34.91,38.25-58,1.02-2.69,1.48-5.01,1.39-6.95-.28-2.97-1.9-5.38-4.87-7.23-1.58-1.02-3.25-1.44-5.01-1.25-1.76,.19-3.5,.93-5.22,2.23-1.72,1.3-3.08,2.57-4.1,3.83-1.02,1.25-2.13,2.81-3.34,4.66-2.41,3.52-5.61,9.74-9.6,18.64-6.32,13.95-11.06,26.02-14.25,36.24-.3,.11-.6,.27-.91,.49-.37,.28-2.92,2.32-7.65,6.12-4.82,3.89-12.06,9-21.7,15.3-9.65,6.31-16.51,10.2-20.59,11.68-.74,.19-1.44,.37-2.09,.56-3.06,.83-6.17,1.07-9.32,.7-3.15-.37-6.17-1.34-9.04-2.92-2.97-1.58-5.66-3.76-8.07-6.54-1.21-1.39-2.32-2.97-3.34-4.73-.56-.83-1.07-1.71-1.53-2.64-.19-.37-.42-.88-.7-1.53-.09-.09-.23-.28-.42-.56s-.33-.51-.42-.7c0-.28,.18-.51,.56-.7,.65-.37,1.64-.83,2.99-1.39,1.34-.56,2.53-1.09,3.55-1.6,1.02-.51,1.95-1.09,2.78-1.74,10.76-6.77,18.64-12.05,23.65-15.86,11.69-8.53,21.28-16.6,28.79-24.2,3.52-3.52,5.98-7.09,7.37-10.71,.74-1.95,.97-3.64,.7-5.08-.28-1.44-1.02-2.57-2.22-3.41-1.21-.83-2.74-1.25-4.59-1.25-1.3,.09-2.71,.51-4.24,1.25-1.53,.74-2.78,1.51-3.76,2.29-.97,.79-2.25,1.86-3.82,3.2-1.58,1.35-2.69,2.3-3.34,2.85-1.76,1.39-5.8,4.57-12.1,9.53-6.31,4.96-10.85,8.53-13.63,10.71-2.78,2.18-6.65,5.26-11.61,9.25-4.96,3.99-9.44,7.65-13.42,10.99-3.99,3.34-7.93,6.63-11.82,9.88-10.2,8.81-15.39,12.98-15.58,12.52-.28-.09-.47-.46-.56-1.11-.09-.65-.05-1.41,.14-2.3,.19-.88,.39-1.76,.63-2.64,.23-.88,.49-1.65,.77-2.3,5.29-13.91,9.23-24.25,11.82-31.02,2.04-5.1,4.22-10.15,6.54-15.16,.84-1.85,1.81-4.03,2.92-6.54,1.11-2.5,2.13-4.71,3.06-6.61,.93-1.9,1.92-4.06,2.99-6.47,1.06-2.41,2.06-4.64,2.99-6.68,.65-1.39,1-2.23,1.04-2.5s.12-.7,.21-1.25c.09-.56,0-1.04-.28-1.46-.28-.42-.7-.81-1.25-1.18-2.04-1.39-4.04-.46-5.98,2.78-8.25,13.91-17.71,23.42-28.38,28.52-.46,.19-.74,.37-.83,.56-.56,1.48-.79,2.41-.7,2.78,.19,1.76,.97,2.69,2.36,2.78,1.39,.09,2.64-.14,3.76-.7,.37-.09,1.55-.77,3.55-2.02,1.99-1.25,3.5-1.92,4.52-2.02,.65-.19,.99,0,1.04,.56,.04,.56-.02,1.21-.21,1.95-.19,.93-.56,2.23-1.11,3.9-6.21,18.18-13.77,35.8-22.67,52.86-2.32,4.45-3.85,7.56-4.59,9.32-.47,.93-.77,1.67-.9,2.23-.14,.56-.26,1.21-.35,1.95-.09,.74,.02,1.42,.35,2.02,.32,.6,.86,1.18,1.6,1.74,1.11,.74,2.27,.65,3.48-.28,3.06-2.41,7.19-5.75,12.38-10.02,8.62-7.05,14.47-11.87,17.53-14.47,1.85-1.58,3.48-1.44,4.87,.42,1.57,2.13,2.69,3.85,3.34,5.15,3.24,6.4,8.85,11.87,16.83,16.41,7.32,4.17,14.42,5.15,21.28,2.92,2.87-1.02,8.6-4.06,17.18-9.11,8.58-5.05,14.72-8.83,18.43-11.34,1.1-.76,5.87-4.18,14.28-10.26-1.5,7.76-.5,13.73,2.97,17.91,3.71,4.45,9.13,7.33,16.27,8.62,2.32,.37,4.78,.56,7.37,.56,3.9,0,8.02-.56,12.38-1.67,6.12-1.58,14.61-5.19,25.46-10.85,7.79-4.17,14.65-11.08,20.59-20.73,1.3-2.23,1.58-3.94,.83-5.15Zm-160.24-.42c.19-.28,.93-1.11,2.23-2.5,.83-.83,1.71-1.71,2.64-2.64,1.67-1.67,3.43-3.34,5.29-5.01,4.54-3.99,11.73-9.78,21.56-17.39,4.82-3.71,8.48-6.58,10.99-8.62,1.76-1.3,3.57-2.73,5.43-4.31,.28-.28,.67-.6,1.18-.97,.51-.37,.9-.6,1.18-.7,1.02-.93,1.95-1.44,2.78-1.53,.74-.18,1.02,.05,.83,.7-.28,1.39-1.3,3.01-3.06,4.87-7.7,7.6-19.43,17.2-35.19,28.79-11.5,8.44-16.79,11.54-15.86,9.32Zm92.36-23.23c4.54-10.57,8.58-19.24,12.1-26.01,4.73-9.09,8.95-12.61,12.66-10.57,.65,.37,1.13,.9,1.46,1.6,.32,.7,.46,1.51,.42,2.43-.05,.93-.21,1.9-.49,2.92-.28,1.02-.67,2.13-1.18,3.34-.51,1.21-1.04,2.34-1.6,3.41-.56,1.07-1.16,2.2-1.81,3.41-.65,1.21-1.23,2.23-1.74,3.06-.51,.83-1.02,1.67-1.53,2.5-.51,.83-.86,1.39-1.04,1.67-4.45,7.88-9.78,15.86-16,23.92-1.11,1.39-2.71,3.15-4.8,5.29-2.09,2.13-3.96,3.8-5.63,5.01,1.48-4.08,4.54-11.41,9.18-21.98Z"/>
        <path class="cls-2" d="M316.94,76.56c-.45-.15-1.01-.22-1.66-.22h-1.72c-.09,0-.18,.03-.26,.08-.08,.05-.12,.14-.12,.28v5.83c0,.13,.04,.22,.12,.28,.08,.05,.17,.08,.26,.08h1.61c.65,0,1.21-.07,1.68-.21s.86-.35,1.19-.62c.32-.28,.57-.63,.74-1.05,.17-.42,.25-.92,.25-1.48,0-.49-.08-.93-.24-1.32s-.39-.72-.7-1-.69-.49-1.14-.63Zm.85,4.14c-.11,.33-.28,.6-.5,.81-.22,.21-.5,.38-.83,.48s-.74,.16-1.22,.16h-1.04v-5.09h1.03c.52,0,.95,.06,1.28,.19,.33,.12,.61,.3,.82,.52s.38,.49,.48,.79c.1,.31,.15,.63,.15,.99,0,.44-.06,.83-.17,1.15Z"/>
        <path class="cls-2" d="M324.54,77.07s.06,0,.08-.02,.05-.03,.06-.06c.02-.03,.03-.07,.04-.11,0-.05,.02-.1,.02-.16,0-.07,0-.12-.02-.17,0-.05-.02-.08-.04-.11s-.04-.05-.06-.07-.05-.02-.08-.02h-3.6c-.09,0-.18,.03-.26,.08-.08,.05-.12,.14-.12,.28v5.83c0,.13,.04,.22,.12,.28,.08,.05,.17,.08,.26,.08h3.64s.06,0,.08-.02c.03-.01,.05-.04,.07-.07s.03-.07,.04-.11c0-.05,.01-.1,.01-.16,0-.07,0-.12-.01-.17,0-.05-.02-.08-.04-.11-.02-.03-.04-.05-.07-.06s-.05-.02-.08-.02h-3.01v-2.34h2.54s.06,0,.08-.02,.05-.03,.06-.06c.02-.03,.03-.06,.04-.11,0-.04,.01-.1,.01-.16s0-.12-.01-.17c0-.05-.02-.08-.04-.11-.02-.03-.04-.05-.06-.06-.03-.01-.05-.02-.08-.02h-2.54v-2.05h2.96Z"/>
        <path class="cls-2" d="M331.56,76.31c-.12,0-.21,0-.28,0s-.12,.01-.16,.03c-.04,.01-.07,.03-.08,.06-.02,.02-.03,.05-.04,.09l-2.12,5.49h0l-2.17-5.5s-.03-.06-.05-.08c-.02-.02-.04-.04-.08-.05-.04-.01-.09-.02-.15-.03s-.15,0-.26,0c-.13,0-.24,0-.32,.01s-.13,.02-.17,.04-.05,.06-.05,.1c0,.05,.02,.11,.05,.18l2.48,6.07s.02,.05,.04,.07c.01,.02,.03,.04,.06,.05,.02,.01,.05,.02,.08,.03,.03,0,.07,.02,.12,.02,.05,0,.1,.01,.17,.01,.06,0,.14,0,.23,0,.11,0,.21,0,.28,0s.14-.01,.19-.03,.09-.03,.12-.06,.05-.05,.06-.09l2.47-6.07c.03-.07,.05-.13,.05-.18,0-.04,0-.08-.03-.1s-.07-.04-.14-.05c-.07,0-.17-.01-.29-.01Z"/>
        <path class="cls-2" d="M338.41,81.06c.18,.19,.4,.33,.67,.42,.27,.09,.57,.14,.92,.14,.18,0,.34-.01,.5-.04,.16-.03,.3-.07,.42-.11,.12-.05,.23-.1,.33-.15s.16-.1,.2-.13,.06-.06,.07-.08,.02-.04,.03-.07,.02-.06,.02-.1,0-.08,0-.13c0-.06,0-.11,0-.16,0-.04-.01-.08-.02-.11,0-.03-.02-.05-.04-.06s-.04-.02-.06-.02c-.05,0-.12,.03-.19,.08-.07,.05-.16,.11-.26,.17-.1,.06-.23,.12-.37,.17-.14,.05-.32,.08-.52,.08-.22,0-.41-.03-.58-.1-.17-.06-.31-.16-.42-.29s-.2-.3-.26-.5c-.06-.2-.09-.43-.09-.71,0-.52,.11-.92,.34-1.19,.22-.27,.55-.41,.96-.41,.21,0,.39,.02,.54,.07s.26,.1,.36,.16c.1,.06,.18,.11,.25,.16s.14,.07,.2,.07c.03,0,.06,0,.08-.02,.02-.01,.04-.04,.05-.07,.01-.03,.02-.06,.03-.1s.01-.08,.01-.12,0-.08,0-.12-.01-.07-.02-.1c0-.03-.02-.05-.04-.07-.01-.02-.04-.05-.09-.09-.04-.04-.12-.08-.21-.14s-.21-.1-.33-.14-.25-.07-.39-.1-.28-.04-.44-.04c-.31,0-.6,.04-.87,.13-.27,.09-.5,.23-.7,.41s-.35,.42-.46,.71-.17,.63-.17,1.02c0,.36,.05,.67,.14,.94,.09,.27,.23,.5,.41,.69Z"/>
        <path class="cls-2" d="M335.96,79.52c0,.58,.08,1.08,.25,1.51s.41,.79,.74,1.08,.74,.5,1.24,.65,1.07,.22,1.73,.22,1.21-.07,1.71-.22,.91-.37,1.25-.68,.6-.69,.77-1.16c.17-.47,.26-1.02,.26-1.66,0-.55-.08-1.04-.24-1.47s-.4-.79-.73-1.08-.74-.52-1.24-.67c-.5-.15-1.09-.23-1.77-.23s-1.23,.08-1.73,.23c-.5,.15-.91,.38-1.25,.69-.33,.31-.59,.69-.76,1.16s-.25,1.01-.25,1.64Zm.98-1.39c.13-.38,.32-.7,.58-.96s.59-.45,.98-.58,.86-.19,1.39-.19c.6,0,1.1,.07,1.51,.2,.41,.13,.75,.32,1,.57s.44,.55,.56,.92,.17,.78,.17,1.24c0,.43-.05,.83-.16,1.21-.1,.38-.28,.7-.52,.98s-.56,.49-.97,.65c-.4,.16-.91,.23-1.51,.23s-1.07-.06-1.48-.18c-.41-.12-.75-.31-1-.55s-.45-.55-.57-.91-.18-.79-.18-1.27c0-.51,.06-.96,.19-1.34Z"/>
      </g>
    </g>
  </g>
</svg>